M48
; DRILL file {KiCad (6.0.10-0)} date 2023 April 09, Sunday 16:04:07
; FORMAT={-:-/ absolute / metric / decimal}
; #@! TF.CreationDate,2023-04-09T16:04:07+02:00
; #@! TF.GenerationSoftware,Kicad,Pcbnew,(6.0.10-0)
; #@! TF.FileFunction,MixedPlating,1,2
FMAT,2
METRIC
; #@! TA.AperFunction,Plated,PTH,ComponentDrill
T1C0.700
; #@! TA.AperFunction,Plated,PTH,ViaDrill
T2C0.800
; #@! TA.AperFunction,Plated,PTH,ComponentDrill
T3C0.800
; #@! TA.AperFunction,Plated,PTH,ComponentDrill
T4C0.900
; #@! TA.AperFunction,Plated,PTH,ComponentDrill
T5C0.950
; #@! TA.AperFunction,NonPlated,NPTH,ComponentDrill
T6C3.200
%
G90
G05
T1
X-10.0Y-13.0
X-10.0Y-18.08
X-3.0Y79.08
X-3.0Y74.0
X0.0Y10.16
X0.0Y5.08
X2.54Y10.16
X2.54Y5.08
X5.08Y10.16
X5.08Y5.08
X6.35Y63.5
X6.35Y58.42
X7.62Y10.16
X7.62Y5.08
X8.89Y63.5
X8.89Y58.42
X15.0Y79.08
X15.0Y74.0
X15.0Y-20.0
X20.08Y-20.0
X27.0Y18.0
X27.0Y12.92
X28.0Y-13.0
X28.0Y-18.08
X33.0Y-12.92
X33.0Y-18.0
X33.02Y104.14
X33.02Y99.06
X36.0Y18.0
X36.0Y12.92
X39.37Y52.07
X39.37Y46.99
X45.0Y18.08
X45.0Y13.0
X48.0Y79.0
X48.0Y73.92
X54.0Y18.08
X54.0Y13.0
X57.15Y55.88
X59.69Y77.47
X62.23Y55.88
X64.0Y18.0
X64.0Y12.92
X64.77Y77.47
X73.66Y17.78
X73.66Y12.7
X75.0Y21.0
X80.08Y21.0
T2
X-15.24Y78.74
X-7.62Y78.74
X-1.905Y-22.225
X3.175Y-20.955
X6.35Y-13.97
X8.89Y-13.97
X17.78Y-18.415
X28.575Y53.65
X30.48Y87.63
X38.735Y-8.255
X38.735Y-15.875
X54.61Y66.04
X54.61Y59.055
X56.515Y71.12
X57.15Y-2.54
X58.42Y52.705
X60.325Y-2.54
X60.96Y52.705
X66.04Y71.12
X66.04Y52.07
X66.04Y-7.62
X66.04Y-15.24
T3
X-2.7Y-8.38
X-2.7Y-16.0
X-0.16Y-8.38
X-0.16Y-16.0
X2.38Y-8.38
X2.38Y-16.0
X4.92Y-8.38
X4.92Y-16.0
X7.46Y-8.38
X7.46Y-16.0
X10.0Y-8.38
X10.0Y-16.0
X12.54Y-8.38
X12.54Y-16.0
X15.08Y-8.38
X15.08Y-16.0
X23.0Y84.62
X23.0Y77.0
X25.54Y84.62
X25.54Y77.0
X28.08Y84.62
X28.08Y77.0
X30.62Y84.62
X30.62Y77.0
X33.16Y84.62
X33.16Y77.0
X35.7Y84.62
X35.7Y77.0
X38.24Y84.62
X38.24Y77.0
X40.78Y84.62
X40.78Y77.0
X48.26Y49.53
X48.26Y41.91
X50.8Y49.53
X50.8Y41.91
X53.34Y49.53
X53.34Y41.91
X55.88Y49.53
X55.88Y41.91
X58.42Y49.53
X58.42Y41.91
X60.96Y49.53
X60.96Y41.91
X63.5Y49.53
X63.5Y41.91
X66.04Y49.53
X66.04Y41.91
T4
X-16.51Y15.24
X-13.97Y15.24
X-7.62Y76.2
X-7.62Y45.72
X-7.62Y-15.24
X-7.112Y15.24
X-5.08Y76.2
X-5.08Y45.72
X-5.08Y-15.24
X-4.572Y15.24
X2.286Y15.24
X4.826Y15.24
X11.684Y15.24
X14.224Y15.24
X17.78Y76.2
X17.78Y45.72
X17.78Y-15.24
X20.32Y76.2
X20.32Y45.72
X20.32Y-15.24
X21.082Y15.24
X23.622Y15.24
X30.48Y111.408
X30.48Y15.24
X33.02Y111.408
X33.02Y15.24
X39.878Y15.24
X42.418Y15.24
X43.18Y76.2
X43.18Y45.72
X43.18Y-15.24
X45.72Y76.2
X45.72Y45.72
X45.72Y-15.24
X49.276Y15.24
X51.816Y15.24
X58.674Y15.24
X61.214Y15.24
X68.072Y15.24
X68.58Y76.2
X68.58Y45.72
X68.58Y-15.24
X70.612Y15.24
X71.12Y76.2
X71.12Y45.72
X71.12Y-15.24
X77.47Y15.24
X80.01Y15.24
T5
X53.0Y-11.0
X55.5Y-11.0
X58.0Y-11.0
X60.5Y-11.0
X63.0Y-11.0
T6
X0.0Y60.96
X0.0Y0.0
X63.5Y60.96
X63.5Y0.0
T0
M30
