G04 #@! TF.GenerationSoftware,KiCad,Pcbnew,(6.0.10-0)*
G04 #@! TF.CreationDate,2023-04-09T16:04:02+02:00*
G04 #@! TF.ProjectId,Uhr,5568722e-6b69-4636-9164-5f7063625858,rev?*
G04 #@! TF.SameCoordinates,PX3ef08c8PYb9f76bf*
G04 #@! TF.FileFunction,Profile,NP*
%FSLAX46Y46*%
G04 Gerber Fmt 4.6, Leading zero omitted, Abs format (unit mm)*
G04 Created by KiCad (PCBNEW (6.0.10-0)) date 2023-04-09 16:04:02*
%MOMM*%
%LPD*%
G01*
G04 APERTURE LIST*
G04 #@! TA.AperFunction,Profile*
%ADD10C,0.100000*%
G04 #@! TD*
G04 APERTURE END LIST*
D10*
X-8890000Y24869998D02*
G75*
G03*
X-8890000Y36090000I0J5610001D01*
G01*
X-19790000Y39370000D02*
X-19790000Y52070000D01*
X72390000Y-5610000D02*
X80010000Y-5610000D01*
X-19789999Y69850000D02*
G75*
G03*
X-16510000Y66570000I3279999J-1D01*
G01*
X72390000Y24870000D02*
X80010000Y24870000D01*
X-16510000Y5610000D02*
X-8890000Y5610000D01*
X-19790000Y-21590000D02*
X-19790000Y-8890000D01*
X-16510000Y55349999D02*
G75*
G03*
X-19790000Y52070000I0J-3280000D01*
G01*
X72390000Y66569998D02*
G75*
G03*
X72390000Y55350000I0J-5609999D01*
G01*
X80010000Y-24870000D02*
X31750000Y-24870000D01*
X45297000Y-5610002D02*
G75*
G03*
X45297000Y5610000I0J5610001D01*
G01*
X-8890000Y55350000D02*
X-16510000Y55350000D01*
X18203000Y36090000D02*
X31750000Y36090000D01*
X-19789999Y8890000D02*
G75*
G03*
X-16510000Y5610000I3279999J-1D01*
G01*
X31750000Y24870000D02*
X45297000Y24870000D01*
X-19790000Y69850000D02*
X-19790000Y82550000D01*
X72390000Y55350000D02*
X80010000Y55350000D01*
X-16510000Y24869999D02*
G75*
G03*
X-19790000Y21590000I0J-3280000D01*
G01*
X45297000Y55349998D02*
G75*
G03*
X45297000Y66570000I0J5610001D01*
G01*
X-19789999Y-21590000D02*
G75*
G03*
X-16510000Y-24870000I3279999J-1D01*
G01*
X-16510000Y85829999D02*
G75*
G03*
X-19790000Y82550000I0J-3280000D01*
G01*
X83290001Y21590000D02*
G75*
G03*
X80010000Y24870000I-3280001J-1D01*
G01*
X80010000Y66569999D02*
G75*
G03*
X83290000Y69850000I0J3280000D01*
G01*
X83290000Y-21590000D02*
X83290000Y-8890000D01*
X45297000Y24869998D02*
G75*
G03*
X45297000Y36090000I0J5610001D01*
G01*
X42147441Y96082458D02*
G75*
G03*
X31750000Y129928367I-10397441J15325911D01*
G01*
X18203000Y5609998D02*
G75*
G03*
X18203000Y-5610000I0J-5609999D01*
G01*
X31750000Y-5610000D02*
X45297000Y-5610000D01*
X31750000Y55350000D02*
X18203000Y55350000D01*
X83290001Y52070000D02*
G75*
G03*
X80010000Y55350000I-3280001J-1D01*
G01*
X80010000Y5610000D02*
X72390000Y5610000D01*
X-8890000Y55349998D02*
G75*
G03*
X-8890000Y66570000I0J5610001D01*
G01*
X80010000Y5609999D02*
G75*
G03*
X83290000Y8890000I0J3280000D01*
G01*
X31750000Y55350000D02*
X45297000Y55350000D01*
X80010000Y66570000D02*
X72390000Y66570000D01*
X-8890000Y-5610000D02*
X-16510000Y-5610000D01*
X80010000Y36090000D02*
X72390000Y36090000D01*
X45297000Y5610000D02*
X31750000Y5610000D01*
X18203000Y85829998D02*
G75*
G03*
X21352557Y96082455I0J5610001D01*
G01*
X83290000Y69850000D02*
X83290000Y82550000D01*
X45297000Y85830000D02*
X80010000Y85830000D01*
X31750000Y-5610000D02*
X18203000Y-5610000D01*
X-19789999Y39370000D02*
G75*
G03*
X-16510000Y36090000I3279999J-1D01*
G01*
X-16510000Y-5610001D02*
G75*
G03*
X-19790000Y-8890000I0J-3280000D01*
G01*
X45297000Y66570000D02*
X31750000Y66570000D01*
X80010000Y36089999D02*
G75*
G03*
X83290000Y39370000I0J3280000D01*
G01*
X18203000Y66570000D02*
X31750000Y66570000D01*
X18203000Y36089998D02*
G75*
G03*
X18203000Y24870000I0J-5609999D01*
G01*
X18203000Y85830000D02*
X-16510000Y85830000D01*
X31750000Y24870000D02*
X18203000Y24870000D01*
X45297000Y36090000D02*
X31750000Y36090000D01*
X-19790000Y8890000D02*
X-19790000Y21590000D01*
X-8890000Y24870000D02*
X-16510000Y24870000D01*
X83290000Y39370000D02*
X83290000Y52070000D01*
X-16510000Y-24870000D02*
X31750000Y-24870000D01*
X83290001Y-8890000D02*
G75*
G03*
X80010000Y-5610000I-3280001J-1D01*
G01*
X42147444Y96082454D02*
G75*
G03*
X45297000Y85830000I3149556J-4642455D01*
G01*
X-16510000Y66570000D02*
X-8890000Y66570000D01*
X18203000Y66569998D02*
G75*
G03*
X18203000Y55350000I0J-5609999D01*
G01*
X80010000Y-24870001D02*
G75*
G03*
X83290000Y-21590000I0J3280000D01*
G01*
X72390000Y36089998D02*
G75*
G03*
X72390000Y24870000I0J-5609999D01*
G01*
X-8890000Y-5610002D02*
G75*
G03*
X-8890000Y5610000I0J5610001D01*
G01*
X72390000Y5609998D02*
G75*
G03*
X72390000Y-5610000I0J-5609999D01*
G01*
X83290000Y8890000D02*
X83290000Y21590000D01*
X18203000Y5610000D02*
X31750000Y5610000D01*
X83290001Y82550000D02*
G75*
G03*
X80010000Y85830000I-3280001J-1D01*
G01*
X-16510000Y36090000D02*
X-8890000Y36090000D01*
X31750000Y129928371D02*
G75*
G03*
X21352557Y96082455I0J-18520002D01*
G01*
M02*
